<svg width="96" height="80" viewBox="0 0 96 80" fill="none" xmlns="http://www.w3.org/2000/svg">
<path d="M28.875 65.7944C27.6655 69.0726 25.0385 71.6914 21.75 72.8972C25.0385 74.103 27.6655 76.7218 28.875 80C30.0845 76.7218 32.7115 74.103 36 72.8972C32.7115 71.6914 30.0845 69.0726 28.875 65.7944Z" fill="#2F3033"/>
<path d="M95.191 14.5983C95.1427 14.4324 95.0944 14.2721 95.0407 14.1062C94.7238 13.1386 94.3264 12.2042 93.8484 11.3029C90.0622 4.16483 81.7861 0.393951 71.3726 0.029028C70.2341 -0.009676 69.074 -0.009676 67.8871 0.029028H67.8818C57.5542 0.382893 45.5349 3.82755 33.8647 10.3851C21.6306 17.2578 11.593 26.486 5.5995 36.3721C3.40294 39.9992 1.84548 43.5544 0.937859 46.9548C0.937859 46.9548 0.937859 46.9548 0.937859 46.9604C0.894895 47.1318 0.84656 47.3087 0.808966 47.4801C-0.603489 53.1751 -0.173845 58.4168 2.15697 62.8124C6.14192 70.3376 15.1322 74.1195 26.3459 74.1195C37.0548 74.1195 49.7938 70.6693 62.1407 63.7358C74.3748 56.8631 84.4123 47.6294 90.4005 37.7433C95.5186 29.2948 97.162 21.2222 95.191 14.5983ZM90.1749 37.5995C84.2083 47.4469 74.2029 56.6419 62.0118 63.4925C36.8615 77.6195 10.1161 77.2545 2.39328 62.6797C0.153759 58.461 -0.302738 53.435 0.964712 47.9722C1.00231 47.8063 1.04527 47.6405 1.08823 47.4746C1.96363 43.9636 3.55332 40.2812 5.83043 36.5214C11.7971 26.674 21.7971 17.479 33.9936 10.6284C45.6531 4.07636 57.6509 0.642763 67.9409 0.299956C67.9409 0.299956 67.9409 0.299956 67.9462 0.299956C68.5262 0.277839 69.1009 0.266781 69.6702 0.266781C70.2233 0.266781 70.7658 0.277839 71.3082 0.299956C71.3136 0.299956 71.3136 0.299956 71.3136 0.299956C76.2115 0.460301 80.6315 1.3892 84.3264 3.06453C88.4295 4.92232 91.6411 7.72006 93.6121 11.4356C94.1491 12.453 94.5842 13.5146 94.9171 14.6149C94.9655 14.7863 95.0138 14.9577 95.0621 15.1291C95.0621 15.1291 95.0621 15.1291 95.0621 15.1346C96.8076 21.5871 95.1373 29.4109 90.1749 37.5995Z" fill="#2F3033"/>
<path d="M3.42773 49.3458V47.243H7.88379C9.42188 47.243 10.7051 46.9451 11.7334 46.3493C12.7705 45.7535 13.5439 44.9036 14.0537 43.7996C14.5635 42.6869 14.8184 41.3551 14.8184 39.8043C14.8184 38.2623 14.5679 36.9393 14.0669 35.8353C13.5659 34.7313 12.8145 33.8858 11.8125 33.2988C10.8105 32.7117 9.58008 32.4182 8.12109 32.4182H3.32227V30.3154H8.2793C10.125 30.3154 11.7114 30.6922 13.0386 31.4457C14.3657 32.1992 15.3809 33.29 16.084 34.7182C16.7871 36.1463 17.1387 37.8417 17.1387 39.8043C17.1387 41.7845 16.7827 43.4886 16.0708 44.9168C15.3589 46.3449 14.3218 47.4401 12.9595 48.2024C11.5972 48.9647 9.95801 49.3458 8.04199 49.3458H3.42773ZM4.48242 49.3458H2.10938V30.3154H4.48242V49.3458Z" fill="#1D1D1D"/>
<path d="M20.6191 30.3154H32.1943V32.4182H22.9922V38.7792H31.5879V40.8557H22.9922V47.243H32.3262V49.3458H20.6191V30.3154Z" fill="#1D1D1D"/>
<path d="M46.3535 35.0993C46.292 34.486 46.0723 33.9559 45.6943 33.5091C45.3252 33.0622 44.8286 32.7249 44.2046 32.4971C43.5894 32.2693 42.8994 32.1554 42.1348 32.1554C41.3086 32.1554 40.5791 32.2868 39.9463 32.5496C39.3135 32.8125 38.8213 33.1849 38.4697 33.6668C38.1182 34.1399 37.9424 34.6787 37.9424 35.2833C37.9512 36.1682 38.3159 36.8473 39.0366 37.3204C39.7573 37.7848 40.623 38.1396 41.6338 38.3849L43.5322 38.9106C45.0088 39.2874 46.2788 39.8657 47.3423 40.6454C48.4058 41.4252 48.9375 42.5993 48.9375 44.1676C48.9375 45.2103 48.665 46.1522 48.1201 46.9933C47.5752 47.8256 46.7798 48.4828 45.7339 48.9647C44.688 49.4466 43.4443 49.6875 42.0029 49.6875C40.6494 49.6875 39.4717 49.4641 38.4697 49.0172C37.4678 48.5704 36.6768 47.9527 36.0967 47.1641C35.5254 46.3756 35.2002 45.4556 35.1211 44.4042H37.5469C37.6084 45.0876 37.8457 45.6659 38.2588 46.139C38.6807 46.6121 39.2168 46.967 39.8672 47.2036C40.5176 47.4314 41.2295 47.5409 42.0029 47.5321C42.8818 47.5321 43.6729 47.3919 44.376 47.1116C45.0791 46.8312 45.6284 46.4325 46.0239 45.9156C46.4194 45.3899 46.6172 44.7897 46.6172 44.1151C46.6172 43.528 46.4546 43.0374 46.1294 42.6431C45.8042 42.2401 45.3691 41.9203 44.8242 41.6837C44.2881 41.4384 43.6289 41.2062 42.8467 40.9871L40.5 40.3563C38.9355 39.9007 37.7314 39.2699 36.8877 38.4638C36.0527 37.6577 35.6396 36.6326 35.6484 35.3884C35.6484 34.337 35.9341 33.4039 36.5054 32.5891C37.0767 31.7742 37.8633 31.1478 38.8652 30.7097C39.8672 30.2716 40.9834 30.0526 42.2139 30.0526C43.4268 30.0526 44.521 30.2716 45.4966 30.7097C46.4722 31.1478 47.2368 31.7523 47.7905 32.5234C48.353 33.2856 48.6475 34.1443 48.6738 35.0993H46.3535Z" fill="#1D1D1D"/>
<path d="M54.7119 49.3458H52.3389V30.3154H54.7119V49.3458Z" fill="#1D1D1D"/>
<path d="M71.9561 36.2558C71.6836 35.4322 71.2925 34.7225 70.7827 34.1268C70.2817 33.531 69.6753 33.071 68.9634 32.7468C68.2515 32.4226 67.4473 32.2605 66.5508 32.2605C65.4082 32.2605 64.3799 32.554 63.4658 33.1411C62.5518 33.7281 61.8267 34.5911 61.2905 35.7301C60.7544 36.8692 60.4863 38.236 60.4863 39.8306C60.4863 41.4252 60.7588 42.7877 61.3037 43.9179C61.8486 45.0482 62.5869 45.9112 63.5186 46.507C64.4502 47.094 65.5137 47.3919 66.709 47.4007C67.79 47.4007 68.7437 47.1685 69.5698 46.7041C70.4048 46.2398 71.0508 45.5827 71.5078 44.7328C71.9648 43.8829 72.1934 42.8884 72.1934 41.7494L72.9053 41.8808H67.21V39.8043H74.5137V41.8546C74.5137 43.4054 74.1841 44.7678 73.5249 45.9419C72.8657 47.1072 71.9429 48.0096 70.7563 48.6492C69.5698 49.2888 68.2207 49.6086 66.709 49.6086C65.0127 49.6086 63.5186 49.21 62.2266 48.4127C60.9434 47.6154 59.9502 46.4807 59.2471 45.0088C58.5439 43.5368 58.1924 41.8107 58.1924 39.8306C58.1924 37.8592 58.5439 36.1376 59.2471 34.6656C59.9502 33.1849 60.9346 32.0459 62.2002 31.2485C63.4658 30.4512 64.916 30.0526 66.5508 30.0526C67.8779 30.0526 69.0952 30.311 70.2026 30.828C71.3188 31.3449 72.2373 32.0765 72.958 33.0228C73.6875 33.9603 74.1709 35.038 74.4082 36.2558H71.9561Z" fill="#1D1D1D"/>
<path d="M93.2344 49.3458H90.9668L80.6309 34.521H80.4463V49.3458H78.0732V30.3154H80.3672L90.7031 45.1665H90.8877V30.3154H93.2344V49.3458Z" fill="#1D1D1D"/>
</svg>
