<svg width="30" height="30" viewBox="0 0 30 30" fill="none" xmlns="http://www.w3.org/2000/svg">
<rect width="30" height="30" fill="white"/>
<g clip-path="url(#clip0_236_47)">
<rect width="28.5922" height="27.9306" transform="translate(1 1)" fill="white"/>
<path d="M17.2023 12.7362H27.505C27.505 12.7362 28.2847 8.03384 21.8259 7.4431C21.8259 7.4431 23.2516 1.18116 16.391 1C16.391 1 15.0599 1.01575 13.2955 1.58287C9.5856 2.78012 3.58359 6.1592 1.29937 15.1386C1.29937 15.1386 1.10245 15.942 1.03156 17.0447C0.858275 19.9197 1.21272 25.2601 5.61577 26.9693C5.61577 26.9693 6.60822 27.3237 7.61643 27.3868L10.1606 23.1255C10.1606 23.1255 6.20652 23.5351 5.78905 18.6279C5.78905 18.6279 4.7966 13.9019 9.60135 9.04993C10.5072 8.13624 11.602 7.22255 13.0671 6.42701C13.0671 6.42701 17.5174 4.26093 18.3523 8.0496C18.3523 8.0496 19.203 10.3102 17.1944 12.7283H17.2023V12.7362Z" fill="#D71F27"/>
<path d="M22.4873 6.90717C22.4873 6.90717 24.677 2.17331 29.5211 1.6377V5.96197C29.5211 5.96197 27.2684 5.67054 22.4873 6.90717Z" fill="#009949"/>
<path d="M26.3468 18.6277C26.3468 18.6277 27.9378 17.9503 28.2214 16.186C28.4813 14.587 27.158 13.6182 25.6615 13.6182H16.7609L7.75 28.9304H11.6174L12.5075 27.3787H23.9759C23.9759 27.3787 28.7334 27.7489 29.521 23.015C30.1591 19.1712 26.3468 18.6356 26.3468 18.6356V18.6277ZM25.2598 22.8811C24.8738 24.0783 23.6451 23.9996 23.6451 23.9996H14.5475L18.7537 16.8555H22.5502C23.2119 16.8555 23.6136 17.1548 23.4009 17.9031C23.1488 18.8089 22.1485 18.6986 22.1485 18.6986H20.8725L19.2105 21.5736H24.0704C24.4012 21.5736 25.6615 21.6051 25.2519 22.8811H25.2598Z" fill="#009949"/>
</g>
<defs>
<clipPath id="clip0_236_47">
<rect width="28.5922" height="27.9306" fill="white" transform="translate(1 1)"/>
</clipPath>
</defs>
</svg>
