<svg width="130" height="108" viewBox="0 0 130 108" fill="none" xmlns="http://www.w3.org/2000/svg">
<g clip-path="url(#clip0_220_3)">
<path d="M39.5 89C37.8873 93.3846 34.3846 96.8873 30 98.5C34.3846 100.113 37.8873 103.615 39.5 108C41.1127 103.615 44.6154 100.113 49 98.5C44.6154 96.8873 41.1127 93.3846 39.5 89Z" fill="#2F3033"/>
</g>
<path d="M127.921 20.5252C127.857 20.3034 127.792 20.0889 127.721 19.8671C127.298 18.5729 126.768 17.3231 126.131 16.1177C121.083 6.57045 110.048 1.52691 96.1635 1.03882C94.6454 0.987058 93.0987 0.987058 91.5162 1.03882H91.509C77.7389 1.51212 61.7132 6.11934 46.1529 14.8901C29.8408 24.0823 16.4574 36.425 8.466 49.6476C5.53726 54.4989 3.46064 59.254 2.25048 63.8021C2.25048 63.8021 2.25048 63.8021 2.25048 63.8095C2.19319 64.0387 2.12875 64.2754 2.07862 64.5047C0.195348 72.1217 0.768207 79.1324 3.87597 85.0116C9.18923 95.0765 21.1763 100.135 36.1279 100.135C50.4064 100.135 67.3917 95.5202 83.8542 86.2466C100.166 77.0544 113.55 64.7043 121.534 51.4817C128.358 40.1818 130.549 29.3847 127.921 20.5252ZM121.233 51.2894C113.278 64.4603 99.9372 76.7585 83.6824 85.9212C50.1486 104.816 14.4882 104.328 4.19104 84.8341C1.20501 79.1916 0.596349 72.4693 2.28628 65.1628C2.33641 64.941 2.39369 64.7191 2.45098 64.4973C3.61818 59.8013 5.73776 54.8761 8.77391 49.8473C16.7295 36.6764 30.0628 24.3782 46.3248 15.2155C61.8708 6.45213 77.8678 1.8597 91.5878 1.40119C91.5878 1.40119 91.5878 1.40119 91.595 1.40119C92.3683 1.37161 93.1345 1.35682 93.8936 1.35682C94.6311 1.35682 95.3543 1.37161 96.0776 1.40119C96.0847 1.40119 96.0848 1.40119 96.0848 1.40119C102.615 1.61565 108.509 2.85805 113.435 5.0988C118.906 7.5836 123.188 11.3256 125.816 16.2952C126.532 17.6559 127.112 19.0758 127.556 20.5474C127.621 20.7767 127.685 21.0059 127.75 21.2352C127.75 21.2352 127.75 21.2352 127.75 21.2426C130.077 29.8728 127.85 40.3371 121.233 51.2894Z" fill="#2F3033" stroke="black" stroke-width="0.25" stroke-miterlimit="10"/>
<path d="M5.57031 67V64.1875H11.5117C13.5625 64.1875 15.2734 63.7891 16.6445 62.9922C18.0273 62.1953 19.0586 61.0586 19.7383 59.582C20.418 58.0938 20.7578 56.3125 20.7578 54.2383C20.7578 52.1758 20.4238 50.4062 19.7559 48.9297C19.0879 47.4531 18.0859 46.3223 16.75 45.5371C15.4141 44.752 13.7734 44.3594 11.8281 44.3594H5.42969V41.5469H12.0391C14.5 41.5469 16.6152 42.0508 18.3848 43.0586C20.1543 44.0664 21.5078 45.5254 22.4453 47.4355C23.3828 49.3457 23.8516 51.6133 23.8516 54.2383C23.8516 56.8867 23.377 59.166 22.4277 61.0762C21.4785 62.9863 20.0957 64.4512 18.2793 65.4707C16.4629 66.4902 14.2773 67 11.7227 67H5.57031ZM6.97656 67H3.8125V41.5469H6.97656V67ZM28.4922 41.5469H43.9258V44.3594H31.6562V52.8672H43.1172V55.6445H31.6562V64.1875H44.1016V67H28.4922V41.5469ZM62.8047 47.9453C62.7227 47.125 62.4297 46.416 61.9258 45.8184C61.4336 45.2207 60.7715 44.7695 59.9395 44.4648C59.1191 44.1602 58.1992 44.0078 57.1797 44.0078C56.0781 44.0078 55.1055 44.1836 54.2617 44.5352C53.418 44.8867 52.7617 45.3848 52.293 46.0293C51.8242 46.6621 51.5898 47.3828 51.5898 48.1914C51.6016 49.375 52.0879 50.2832 53.0488 50.916C54.0098 51.5371 55.1641 52.0117 56.5117 52.3398L59.043 53.043C61.0117 53.5469 62.7051 54.3203 64.123 55.3633C65.541 56.4062 66.25 57.9766 66.25 60.0742C66.25 61.4688 65.8867 62.7285 65.1602 63.8535C64.4336 64.9668 63.373 65.8457 61.9785 66.4902C60.584 67.1348 58.9258 67.457 57.0039 67.457C55.1992 67.457 53.6289 67.1582 52.293 66.5605C50.957 65.9629 49.9023 65.1367 49.1289 64.082C48.3672 63.0273 47.9336 61.7969 47.8281 60.3906H51.0625C51.1445 61.3047 51.4609 62.0781 52.0117 62.7109C52.5742 63.3438 53.2891 63.8184 54.1562 64.1348C55.0234 64.4395 55.9727 64.5859 57.0039 64.5742C58.1758 64.5742 59.2305 64.3867 60.168 64.0117C61.1055 63.6367 61.8379 63.1035 62.3652 62.4121C62.8926 61.709 63.1562 60.9062 63.1562 60.0039C63.1562 59.2188 62.9395 58.5625 62.5059 58.0352C62.0723 57.4961 61.4922 57.0684 60.7656 56.752C60.0508 56.4238 59.1719 56.1133 58.1289 55.8203L55 54.9766C52.9141 54.3672 51.3086 53.5234 50.1836 52.4453C49.0703 51.3672 48.5195 49.9961 48.5312 48.332C48.5312 46.9258 48.9121 45.6777 49.6738 44.5879C50.4355 43.498 51.4844 42.6602 52.8203 42.0742C54.1562 41.4883 55.6445 41.1953 57.2852 41.1953C58.9023 41.1953 60.3613 41.4883 61.6621 42.0742C62.9629 42.6602 63.9824 43.4688 64.7207 44.5C65.4707 45.5195 65.8633 46.668 65.8984 47.9453H62.8047ZM73.9492 67H70.7852V41.5469H73.9492V67ZM96.9414 49.4922C96.5781 48.3906 96.0566 47.4414 95.377 46.6445C94.709 45.8477 93.9004 45.2324 92.9512 44.7988C92.002 44.3652 90.9297 44.1484 89.7344 44.1484C88.2109 44.1484 86.8398 44.541 85.6211 45.3262C84.4023 46.1113 83.4355 47.2656 82.7207 48.7891C82.0059 50.3125 81.6484 52.1406 81.6484 54.2734C81.6484 56.4062 82.0117 58.2285 82.7383 59.7402C83.4648 61.252 84.4492 62.4062 85.6914 63.2031C86.9336 63.9883 88.3516 64.3867 89.9453 64.3984C91.3867 64.3984 92.6582 64.0879 93.7598 63.4668C94.873 62.8457 95.7344 61.9668 96.3438 60.8301C96.9531 59.6934 97.2578 58.3633 97.2578 56.8398L98.207 57.0156H90.6133V54.2383H100.352V56.9805C100.352 59.0547 99.9121 60.877 99.0332 62.4473C98.1543 64.0059 96.9238 65.2129 95.3418 66.0684C93.7598 66.9238 91.9609 67.3516 89.9453 67.3516C87.6836 67.3516 85.6914 66.8184 83.9688 65.752C82.2578 64.6855 80.9336 63.168 79.9961 61.1992C79.0586 59.2305 78.5898 56.9219 78.5898 54.2734C78.5898 51.6367 79.0586 49.334 79.9961 47.3652C80.9336 45.3848 82.2461 43.8613 83.9336 42.7949C85.6211 41.7285 87.5547 41.1953 89.7344 41.1953C91.5039 41.1953 93.127 41.541 94.6035 42.2324C96.0918 42.9238 97.3164 43.9023 98.2773 45.168C99.25 46.4219 99.8945 47.8633 100.211 49.4922H96.9414ZM125.312 67H122.289L108.508 47.1719H108.262V67H105.098V41.5469H108.156L121.938 61.4102H122.184V41.5469H125.312V67Z" fill="#1D1D1D"/>
<defs>
<clipPath id="clip0_220_3">
<rect width="19" height="19" fill="white" transform="translate(30 89)"/>
</clipPath>
</defs>
</svg>
