<svg width="194" height="30" viewBox="0 0 194 30" fill="none" xmlns="http://www.w3.org/2000/svg">
<path d="M14.746 12.708C16.0589 12.2573 18.6554 10.8072 18.6554 6.31974C18.6554 2.74347 15.8727 0.431152 10.9443 0.431152H0V1.08762C2.14576 1.08762 2.77283 2.29277 2.77283 4.40913V23.7895C2.77283 27.5911 1.37172 27.4539 0.00979798 27.5421V28.1986H12.3259C18.0871 28.1986 21.4576 25.1514 21.4576 20.3994C21.4576 15.3338 17.5384 13.2371 14.746 12.6982M6.11394 2.93943C6.11394 2.06741 6.65283 1.92044 7.2603 1.92044H10.2683C12.0907 1.92044 15.569 2.33196 15.569 7.05459C15.569 10.474 13.8543 12.3259 11.8849 12.3259H6.11394V2.93943ZM10.7582 26.7485C8.86717 26.7485 6.11394 27.0032 6.11394 24.5439V13.8445H11.3363C14.9909 13.8445 17.9597 15.6474 17.9597 20.7423C17.9597 26.5917 12.8354 26.7485 10.7582 26.7485Z" fill="#231F20"/>
<path d="M69.9482 15.8041C71.1533 15.2065 74.2887 13.3448 74.2887 7.68166C74.2887 4.13479 72.1135 0.431152 65.6469 0.431152H55.4766V1.08762C57.6223 1.08762 58.2494 2.29277 58.2494 4.40913V24.1324C58.2494 27.258 56.9169 27.4539 55.4864 27.5421V28.1986H64.3927V27.5323C62.2274 27.4931 61.6003 26.5917 61.6003 23.8483V16.4606H66.7442C66.7442 16.4606 72.4369 23.9169 73.7008 25.3866C75.2783 27.209 76.3267 28.1986 78.59 28.1986H83.0089V27.5421C81.2061 27.5421 79.658 27.062 78.3744 25.9451C76.4932 24.3186 69.9678 15.7943 69.9678 15.7943M65.6567 14.8635H61.6003V2.87085C61.6003 2.09681 61.9824 1.93024 62.9132 1.93024H64.5005C66.8814 1.93024 70.928 2.79246 70.928 8.68105C70.928 13.8152 68.3609 14.8635 65.6469 14.8635" fill="#231F20"/>
<path d="M97.6466 1.09741C99.5768 1.09741 99.3319 2.6357 98.9204 3.39994C98.4892 4.20337 93.6882 12.4238 92.5419 14.3932C91.9736 13.4428 86.3202 4.02701 85.7421 2.92964C85.1248 1.77347 85.7617 1.09741 86.7513 1.09741V0.44095H78.0898V1.09741C80.2062 1.09741 81.7347 2.80226 82.401 3.88004C82.9692 4.80105 88.1818 13.1195 88.7696 14.1287C89.3575 15.1379 90.0728 16.3724 90.0728 18.1557V24.5341C90.0728 27.0522 88.7207 27.5421 87.3097 27.5421V28.1986H96.1867V27.5421C94.0899 27.5421 93.4335 26.3468 93.4335 24.397V18.1557C93.4335 16.9799 93.649 15.9021 94.2859 14.6088C94.9228 13.3155 99.4005 6.12378 100.782 3.80166C102.075 1.6363 103.672 1.07782 104.917 1.07782V0.431152H97.6466V1.09741Z" fill="#231F20"/>
<path d="M125.943 1.09741C128.109 1.09741 128.706 2.38095 128.706 4.35034V16.4802C128.706 20.5072 128.03 26.7975 120.672 26.7975C113.314 26.7975 112.481 20.223 112.481 17.9695V4.28176C112.481 1.55792 113.715 1.09741 115.244 1.09741V0.431152H106.171V1.09741C108.366 1.09741 108.944 2.53772 108.944 4.076V17.0093C108.944 20.2622 109.424 28.6003 120.221 28.6003C131.019 28.6003 131.019 18.9101 131.019 16.2548V4.21317C131.019 1.21499 132.655 1.13661 133.791 1.08762V0.431152H125.943V1.08762V1.09741Z" fill="#231F20"/>
<path d="M156.572 1.09711C158.698 1.09711 159.335 2.35125 159.335 4.11489V22.1236L138.426 0.313277C138.122 -0.010056 137.583 0.205499 137.583 0.646408V24.4751C137.583 27.5615 135.702 27.5027 134.82 27.5517V28.2082H142.335V27.5419C140.924 27.5419 139.563 27.1108 139.563 24.4555V6.62317L160.501 28.3159C160.805 28.6393 161.343 28.4237 161.343 27.9828V4.23247C161.343 1.90055 162.362 1.09711 164.116 1.09711V0.430853H156.582V1.09711H156.572Z" fill="#231F20"/>
<path d="M184.966 14.4518V15.1082C186.377 15.1082 187.71 15.5981 187.71 18.0868V24.916C187.71 25.4157 187.426 25.886 186.975 26.1114C185.535 26.8266 184.428 26.856 182.781 26.856C176.472 26.856 169.858 22.0158 169.858 12.8841C169.858 3.75235 176.325 1.5674 180.969 1.5674C185.613 1.5674 187.798 2.69417 188.954 3.71316C189.65 4.32064 190.326 5.59437 190.326 7.32862H190.973L191.453 1.94953C188.494 0.616997 184.545 0.00952148 181.929 0.00952148C172.288 0.00952148 166.145 5.13387 166.145 14.3048C166.145 23.4757 173.532 28.6099 182.35 28.6099C187.524 28.6099 190.169 27.2381 191.12 26.6699V17.9105C191.12 16.186 191.913 15.1082 193.628 15.1082V14.4518H184.986H184.966Z" fill="#231F20"/>
<path d="M38.7316 0.166539C32.2747 -0.921036 24.7988 5.00675 24.7988 14.2952C24.7988 23.5837 32.2747 29.5115 38.7316 28.4239C32.4315 27.3657 28.8258 21.3106 28.8258 14.2952C28.8258 7.27988 32.4413 1.22473 38.7316 0.166539Z" fill="#231F20"/>
<path d="M38.7314 0.166539C45.0217 1.22473 48.6372 7.27988 48.6372 14.2952C48.6372 21.3106 45.0217 27.3657 38.7314 28.4239C45.1883 29.5115 52.6544 23.5837 52.6544 14.2952C52.6544 5.00675 45.1883 -0.921036 38.7314 0.166539Z" fill="#231F20"/>
</svg>
