<svg width="161" height="25" viewBox="0 0 161 25" fill="none" xmlns="http://www.w3.org/2000/svg">
<g clip-path="url(#clip0_19_96)">
<path d="M12.2376 11.1523C13.3272 10.7782 15.482 9.5748 15.482 5.85069C15.482 2.88276 13.1727 0.963776 9.08268 0.963776H0V1.50857C1.78076 1.50857 2.30116 2.50872 2.30116 4.26509V20.3488C2.30116 23.5037 1.13838 23.3899 0.00813131 23.4631V24.0079H10.2292C15.0104 24.0079 17.8076 21.479 17.8076 17.5354C17.8076 13.3315 14.5551 11.5914 12.2376 11.1441M5.07394 3.04539C5.07394 2.3217 5.52116 2.19973 6.0253 2.19973H8.52162C10.034 2.19973 12.9207 2.54125 12.9207 6.46054C12.9207 9.29834 11.4977 10.8352 9.86328 10.8352H5.07394V3.04539ZM8.92818 22.8044C7.35884 22.8044 5.07394 23.0159 5.07394 20.9749V12.0955H9.40793C12.4409 12.0955 14.9047 13.5917 14.9047 17.82C14.9047 22.6743 10.652 22.8044 8.92818 22.8044Z" fill="white"/>
<path d="M58.049 13.7218C59.0492 13.2258 61.6512 11.6808 61.6512 6.98095C61.6512 4.03741 59.846 0.963776 54.4794 0.963776H46.0391V1.50857C47.8198 1.50857 48.3402 2.50872 48.3402 4.26509V20.6334C48.3402 23.2273 47.2344 23.3899 46.0472 23.4631V24.0079H53.4386V23.455C51.6415 23.4224 51.1211 22.6743 51.1211 20.3976V14.2666H55.3901C55.3901 14.2666 60.1144 20.4545 61.1633 21.6742C62.4724 23.1866 63.3425 24.0079 65.2208 24.0079H68.8881V23.4631C67.3919 23.4631 66.1071 23.0647 65.0419 22.1377C63.4807 20.7879 58.0653 13.7136 58.0653 13.7136M54.4875 12.9412H51.1211V2.98847C51.1211 2.3461 51.4383 2.20787 52.2107 2.20787H53.528C55.5039 2.20787 58.8621 2.92342 58.8621 7.81034C58.8621 12.0711 56.7317 12.9412 54.4794 12.9412" fill="white"/>
<path d="M81.0367 1.5167C82.6386 1.5167 82.4353 2.79332 82.0938 3.42756C81.736 4.09433 77.7517 10.9165 76.8003 12.5509C76.3287 11.7621 71.6369 3.94797 71.1572 3.03726C70.6449 2.07776 71.1735 1.5167 71.9947 1.5167V0.971907H64.8066V1.5167C66.563 1.5167 67.8315 2.93155 68.3844 3.826C68.856 4.59034 73.1819 11.4938 73.6698 12.3313C74.1577 13.1688 74.7512 14.1934 74.7512 15.6733V20.9668C74.7512 23.0565 73.6291 23.4631 72.4582 23.4631V24.0079H79.8252V23.4631C78.0851 23.4631 77.5403 22.4711 77.5403 20.8529V15.6733C77.5403 14.6975 77.7192 13.8031 78.2477 12.7298C78.7762 11.6564 82.4923 5.68807 83.6388 3.76095C84.7121 1.96393 86.0375 1.50044 87.0702 1.50044V0.963776H81.0367V1.5167Z" fill="white"/>
<path d="M104.52 1.5167C106.317 1.5167 106.813 2.58191 106.813 4.2163V14.2828C106.813 17.6248 106.252 22.8451 100.146 22.8451C94.0391 22.8451 93.3479 17.389 93.3479 15.5188V4.15938C93.3479 1.89888 94.3724 1.5167 95.6409 1.5167V0.963776H88.1113V1.5167C89.9327 1.5167 90.4125 2.71201 90.4125 3.98862V14.7219C90.4125 17.4215 90.8109 24.3413 99.7716 24.3413C108.732 24.3413 108.732 16.2994 108.732 14.0958V4.10246C108.732 1.61428 110.09 1.54923 111.034 1.50857V0.963776H104.52V1.50857V1.5167Z" fill="white"/>
<path d="M129.938 1.51646C131.703 1.51646 132.231 2.55727 132.231 4.02091V18.9663L114.879 0.865958C114.627 0.597625 114.18 0.776514 114.18 1.14242V20.9178C114.18 23.4792 112.619 23.4304 111.887 23.471V24.0158H118.123V23.4629C116.953 23.4629 115.822 23.1051 115.822 20.9016V6.10252L133.199 24.1053C133.451 24.3736 133.898 24.1947 133.898 23.8288V4.11848C133.898 2.18323 134.744 1.51646 136.199 1.51646V0.963534H129.946V1.51646H129.938Z" fill="white"/>
<path d="M153.503 12.5996V13.1444C154.674 13.1444 155.78 13.5509 155.78 15.6163V21.2838C155.78 21.6985 155.544 22.0888 155.17 22.2758C153.975 22.8694 153.056 22.8938 151.69 22.8938C146.453 22.8938 140.965 18.8769 140.965 11.2986C140.965 3.72015 146.331 1.90687 150.185 1.90687C154.04 1.90687 155.853 2.84197 156.813 3.68762C157.39 4.19176 157.951 5.24884 157.951 6.68808H158.488L158.886 2.22399C156.43 1.11812 153.153 0.613983 150.982 0.613983C142.981 0.613983 137.883 4.86666 137.883 12.4776C137.883 20.0885 144.014 24.3493 151.332 24.3493C155.625 24.3493 157.821 23.2109 158.61 22.7393V15.4699C158.61 14.0388 159.268 13.1444 160.691 13.1444V12.5996H153.519H153.503Z" fill="white"/>
<path d="M32.1428 0.744218C26.7843 -0.158358 20.5801 4.76109 20.5801 12.4696C20.5801 20.178 26.7843 25.0975 32.1428 24.1949C26.9144 23.3167 23.922 18.2916 23.922 12.4696C23.922 6.64756 26.9225 1.6224 32.1428 0.744218Z" fill="white"/>
<path d="M32.1436 0.744218C37.3639 1.6224 40.3643 6.64756 40.3643 12.4696C40.3643 18.2916 37.3639 23.3167 32.1436 24.1949C37.5021 25.0975 43.6982 20.178 43.6982 12.4696C43.6982 4.76109 37.5021 -0.158358 32.1436 0.744218Z" fill="white"/>
</g>
<defs>
<clipPath id="clip0_19_96">
<rect width="161" height="24.3939" fill="white" transform="translate(0 0.606049)"/>
</clipPath>
</defs>
</svg>
