<svg width="165" height="42" viewBox="0 0 165 42" fill="none" xmlns="http://www.w3.org/2000/svg">
<g clip-path="url(#clip0_76_1178)">
<path d="M162.01 23.42C162.42 22.56 162.66 21.62 162.66 20.61C162.66 19.03 162.05 17.59 161.08 16.42C161.31 15.7 161.49 14.97 161.49 14.21V11.3C161.49 7 157.94 3.5 153.58 3.5H153.07C152.96 3.5 152.84 3.5 152.73 3.52C152.73 3.52 152.47 3.55 152.31 3.56H138.25C136.74 2.46 135.27 2.15 134.23 2.15C132.86 2.15 131.58 2.59 130.46 3.27C129.51 2.46 128.38 1.85 127.1 1.57C127.04 1.55 126.98 1.54 126.92 1.54L124.85 1.22C124.7 1.2 124.55 1.18 124.4 1.18C121.05 1.18 118.16 2.79 116.75 5.2H114.11C112.64 2.99 109.91 1.58 106.77 1.58C105.22 1.58 103.77 1.94 102.5 2.56C101.01 1.48 99.1599 0.82 97.0999 0.82C93.9699 0.82 91.3099 2.24 89.8599 4.39C89.6699 4.37 89.4899 4.29 89.2899 4.29H80.0699C78.9099 3.54 77.6999 3.03 76.4199 3.03C75.8299 3.03 75.2599 3.17 74.6899 3.31C73.2199 2.03 71.2799 1.22 69.1599 1.22C67.3799 1.22 65.6799 1.75 64.2999 2.69C64.1899 2.67 63.9099 2.63 63.9099 2.63C62.1299 2.63 60.4799 3.34 59.1799 4.5C57.6499 1.81 54.6199 0.61 51.8599 0.67H51.7999C49.5999 0.65 47.6399 1.41 46.2699 2.82C45.8499 3.25 45.5699 3.77 45.2899 4.3C44.0099 4.55 42.6899 4.95 41.7099 5.74L42.0799 4.47V3.76C42.0799 2.91 41.7199 2.11 41.0899 1.55C40.4599 0.99 39.6199 0.72 38.7799 0.81C35.4799 1.18 32.9599 2.71 31.1499 4.36C30.9799 4.07 30.7899 3.78 30.5799 3.5C29.3699 1.99 26.9999 0.12 22.5099 0C22.4099 0 22.3099 0 22.2099 0C16.1499 0.33 4.19988 5.24 0.399877 20.2C0.379877 20.26 0.369877 20.32 0.359877 20.38C0.249877 20.97 -2.24012 34.87 7.68988 38.72C7.76988 38.75 7.85988 38.78 7.93988 38.81C8.00988 38.83 8.24988 38.9 8.58988 38.98C8.64988 39.27 8.74988 39.55 8.89988 39.82C9.43988 40.75 10.4299 41.32 11.4999 41.31L16.4399 41.26C17.4899 41.26 18.4599 40.69 18.9899 39.77C18.9899 39.77 18.9299 39.86 19.3699 39.11H32.5299C36.9699 39.06 41.1799 36.83 42.0499 32.08C42.0899 32.1 42.2199 32.15 42.4099 32.21C43.7099 33.19 45.9699 34.19 47.6099 34.19C49.5199 34.19 51.3099 33.39 52.6599 32.03C54.0199 33.39 55.8399 34.19 57.7699 34.19C58.1999 34.19 58.6199 34.13 59.0399 34.05C60.2499 35.88 62.3099 37.09 64.6499 37.09H64.8799C65.7599 37.09 66.6199 36.87 67.4399 36.53C68.1999 36.8 68.9799 36.96 69.7899 36.96C72.5199 36.96 74.8899 35.37 76.1799 33.04C76.3499 33.05 76.5199 33.13 76.6999 33.13H89.4999C89.6999 33.13 89.8999 33.11 90.0999 33.07L90.4699 32.99H90.4899L90.5499 32.97H90.5799C90.5799 32.97 90.6599 32.94 90.6999 32.93C90.8099 32.9 90.9199 32.88 91.0399 32.86C92.3799 35.23 94.8899 36.81 97.7599 36.81C102.02 36.81 105.49 33.39 105.56 29.16H108.59V29.4C108.59 33.7 112.11 37.19 116.43 37.19H116.93C121.26 37.19 124.78 33.69 124.78 29.4V29.16H125.94C126.62 32.34 129.36 34.78 132.74 34.96C132.68 34.96 132.93 34.97 132.93 34.97C133 34.97 133.07 34.97 133.15 34.97H157.52C161.23 34.97 164.24 31.99 164.24 28.32C164.24 26.37 163.37 24.63 162.02 23.41L162.01 23.42Z" fill="white"/>
<path d="M23.4602 17.8805H36.5402C36.5402 17.8805 37.5302 11.9105 29.3302 11.1605C29.3302 11.1605 31.1402 3.21047 22.4302 2.98047C22.4302 2.98047 20.7402 3.00047 18.5002 3.72047C13.7902 5.24047 6.17024 9.53047 3.27024 20.9305C3.27024 20.9305 3.02024 21.9505 2.93024 23.3505C2.71024 27.0005 3.16024 33.7805 8.75024 35.9505C8.75024 35.9505 10.0102 36.4005 11.2902 36.4805L14.5202 31.0705C14.5202 31.0705 9.50024 31.5905 8.97024 25.3605C8.97024 25.3605 7.71024 19.3605 13.8102 13.2005C14.9602 12.0405 16.3502 10.8805 18.2102 9.87047C18.2102 9.87047 23.8602 7.12047 24.9202 11.9305C24.9202 11.9305 26.0002 14.8005 23.4502 17.8705L23.4602 17.8805Z" fill="#D80E19"/>
<path d="M30.1699 10.48C30.1699 10.48 32.9499 4.47004 39.0999 3.79004V9.28004C39.0999 9.28004 36.2399 8.91004 30.1699 10.48Z" fill="#009944"/>
<path d="M157.51 24.65C157.51 24.65 157.71 24.65 156.49 24.65C156.46 24.53 156.41 24.41 156.38 24.29H155.93C157.99 24.29 159.67 22.64 159.67 20.62C159.67 19.08 158.7 17.77 157.32 17.23C158.03 16.4 158.49 15.38 158.49 14.23V11.32C158.49 8.66001 156.28 6.49001 153.55 6.49001H153.04C153.04 6.49001 152.73 6.52001 152.44 6.56001H137.17C136.37 5.75001 135.39 5.15001 134.2 5.15001C132.32 5.15001 130.73 6.35001 130.11 8.02001C129.66 6.29001 128.27 4.90001 126.44 4.50001C126.21 4.46001 124.37 4.18001 124.37 4.18001C121.35 4.18001 119.03 5.93001 118.81 8.20001H112.18C111.72 6.14001 109.55 4.59001 106.73 4.59001C104.79 4.59001 103.11 5.32001 102.1 6.44001C101.25 4.89001 99.3302 3.83001 97.0502 3.83001C93.9802 3.83001 91.5902 5.73001 91.5902 8.18001C90.9402 7.65001 90.1402 7.30001 89.2402 7.30001H79.2102C78.4102 6.58001 77.4802 6.05001 76.3802 6.05001C75.4102 6.05001 74.5202 6.37001 73.8002 6.91001C73.0302 5.32001 71.2402 4.24001 69.1202 4.24001C67.4802 4.24001 66.0702 4.88001 65.1402 5.88001C64.7302 5.75001 64.3102 5.65001 63.8702 5.65001C62.2602 5.65001 60.8702 6.58001 60.1502 7.92001C59.9002 7.87001 59.6502 7.84001 59.3802 7.84001C59.3802 7.84001 58.2402 7.84001 57.1102 7.84001C57.1102 7.82001 57.1102 7.67001 57.1102 7.67001C56.7202 4.81001 54.1102 3.61001 51.7902 3.70001C50.0002 3.67001 48.9402 4.36001 48.3702 4.95001C47.6602 5.68001 47.4002 6.59001 47.3602 7.32001C47.1302 7.28001 46.9202 7.19001 46.6802 7.19001C44.2102 7.19001 42.2002 9.20001 42.2002 11.66C42.2002 14.12 44.0902 16.01 46.5102 16.11C46.5102 16.11 47.3102 16.11 48.1002 16.13V16.8C48.0602 16.67 47.8102 21.46 44.8002 23.85L44.6502 23.97L44.4202 24.25C43.7302 25.03 43.3402 26.02 43.3402 27.02C43.3402 29.35 45.2302 31.24 47.5702 31.24C48.7902 31.24 49.9602 30.69 50.7802 29.73C51.0202 29.46 51.8202 28.56 52.6302 27.46C53.4602 28.57 54.2502 29.48 54.5102 29.78C55.3002 30.67 56.4802 31.24 57.7202 31.24C58.9602 31.24 60.0902 30.68 60.8602 29.8V30.39C60.8602 32.46 62.5502 34.14 64.6102 34.14H64.8402C65.7702 34.14 66.6302 33.78 67.2902 33.2C68.0002 33.71 68.8402 34.01 69.7402 34.01C72.1702 34.01 74.1502 31.87 74.1802 29.25C74.8402 29.83 75.7102 30.18 76.6502 30.18H89.4502C89.4502 30.18 89.9502 30.08 89.9602 30.08C91.1202 30.01 92.1002 29.81 92.9502 29.55C93.2102 31.97 95.1902 33.87 97.7002 33.87C100.37 33.87 102.54 31.71 102.54 29.05V25.93C102.94 26.06 103.33 26.17 103.76 26.2L104.01 26.22H111.5V29.43C111.5 32.08 113.69 34.25 116.37 34.25H116.87C119.57 34.25 121.75 32.08 121.75 29.43V26.22H128.6C128.73 26.22 128.85 26.19 128.97 26.18C128.8 26.64 128.69 27.14 128.69 27.66C128.69 29.98 130.51 31.89 132.85 32.02L133.1 32.04H157.47C159.53 32.04 161.22 30.39 161.22 28.37C161.22 26.35 159.54 24.69 157.47 24.69L157.51 24.65Z" fill="#231916"/>
<path d="M59.3004 25.5997V25.5897C59.2204 25.5097 59.1404 25.4497 59.0604 25.3897C55.6204 22.5197 55.1604 17.4797 55.1104 16.7597V13.9597H59.4204C60.5204 13.9597 61.4204 13.0697 61.4204 11.9697C61.4204 10.8697 60.5304 9.96973 59.4204 9.96973C59.3904 9.96973 59.3804 9.98973 59.3504 9.98973H55.1204C55.1804 9.03973 55.0204 7.96973 55.0204 7.96973C54.7104 5.66973 51.8204 5.83973 51.8204 5.83973C49.3904 5.77973 49.4904 7.57973 49.4904 7.57973C49.4404 9.15973 50.2004 9.15973 50.2004 9.15973V9.99973H48.3504C47.9304 9.58973 47.3504 9.32973 46.7204 9.32973C45.4304 9.32973 44.4004 10.3697 44.4004 11.6597C44.4004 12.9497 45.3904 13.9197 46.6404 13.9697V13.9897H50.2904V16.7897L50.2504 16.6997C50.2504 16.6997 50.0104 22.4597 46.1904 25.5197C46.1704 25.5397 46.1504 25.5397 46.1404 25.5597C46.1104 25.5797 46.0804 25.6097 46.0504 25.6397L46.0804 25.6597C45.7504 26.0197 45.5404 26.4997 45.5404 27.0197C45.5404 28.1697 46.4704 29.1097 47.6204 29.1097C48.2504 29.1097 48.8104 28.7997 49.1804 28.3497C49.1804 28.3497 52.0104 25.1797 52.6704 23.3697C53.3204 25.1797 56.1504 28.3597 56.1504 28.3597L56.1704 28.3397C56.5504 28.7997 57.1104 29.1197 57.7604 29.1197C58.9104 29.1197 59.8404 28.1797 59.8404 27.0297C59.8404 26.4997 59.6204 26.0197 59.2904 25.6497L59.3004 25.5997Z" fill="#FFE100"/>
<path d="M65.4504 8.42953V8.47953C65.0604 8.05953 64.5204 7.76953 63.9004 7.76953C62.7504 7.76953 61.8104 8.70953 61.8104 9.85953C61.8104 10.6995 62.3204 11.4295 63.0404 11.7495V16.3395H60.2704C60.2704 16.3395 60.2404 16.3395 60.2304 16.3395C60.2104 16.3395 60.2004 16.3395 60.1904 16.3395H60.1404V16.3595C59.0304 16.4095 58.1504 17.2995 58.1504 18.4195C58.1504 19.5395 59.0804 20.4995 60.2304 20.4995C60.2604 20.4995 60.2904 20.4795 60.3204 20.4795H63.0304V30.3495C63.0304 31.2395 63.7604 31.9595 64.6304 31.9595H64.8604C65.7504 31.9595 66.4604 31.2395 66.4604 30.3495V10.9295C66.2904 9.32953 65.4204 8.42953 65.4204 8.42953H65.4504Z" fill="#FFE100"/>
<path d="M72.1 8.49937V8.29938H72.08C71.9 7.20938 70.67 6.35938 69.16 6.35938C67.53 6.35938 66.21 7.34938 66.21 8.55938C66.21 9.30938 66.72 9.97937 67.5 10.3694V29.1494C67.5 30.6294 68.53 31.8394 69.8 31.8394C71.07 31.8394 72.1 30.6394 72.1 29.1494V8.61937C72.1 8.61937 72.11 8.57938 72.11 8.55938C72.11 8.53938 72.11 8.51937 72.1 8.48937V8.49937Z" fill="#FFE100"/>
<path d="M97.0907 5.95996C95.2607 5.95996 93.7707 6.94996 93.7707 8.16996C93.7707 8.85996 94.2707 9.46996 95.0307 9.86996V21.13C93.7607 23.87 90.9107 24.6 89.1907 24.79H80.1907V19.03H89.2807C90.1107 19.03 90.7807 18.42 90.8907 17.65H90.9307V11V10.99C90.8907 10.13 90.1807 9.42996 89.2907 9.42996H78.4107C78.0507 8.69996 77.3007 8.17996 76.4207 8.17996C75.1807 8.17996 74.1807 9.17996 74.1807 10.42C74.1807 11.66 75.1907 12.66 76.4207 12.66C76.4807 12.66 76.5207 12.64 76.5807 12.63C76.6207 12.63 76.6607 12.66 76.7107 12.66H85.8507V15.84H76.7107C75.8007 15.84 75.0607 16.56 75.0607 17.44C75.0607 17.46 75.0607 17.47 75.0707 17.49V26.36C75.0707 26.36 75.0607 26.4 75.0607 26.41C75.0607 26.42 75.0607 26.45 75.0707 26.46V26.53H75.0807C75.1507 27.35 75.8407 28.01 76.7107 28.01H89.2907C89.3807 28.01 89.4507 27.97 89.5407 27.96C92.8407 27.88 94.6107 26.48 95.0507 26.07V29.03C95.0507 30.5 96.2707 31.7 97.7607 31.7C99.2507 31.7 100.471 30.5 100.471 29.03V8.16996H100.431C100.431 6.94996 98.9407 5.96996 97.1107 5.96996L97.0907 5.95996Z" fill="#FFE100"/>
<path d="M104.36 10.5201V13.2501V16.1801C104.36 17.6501 105.6 18.8501 107.1 18.8501H107.6C107.6 18.8501 107.69 18.8501 107.73 18.8401H124.78C124.83 18.8401 124.87 18.8501 124.92 18.8501H125.42C126.93 18.8501 128.16 17.6501 128.16 16.1801V9.19008C128.16 7.90008 127.21 6.81008 125.95 6.57008C125.48 6.42008 124.96 6.33008 124.4 6.33008C122.46 6.33008 120.9 7.32008 120.9 8.53008C120.9 9.21008 121.42 9.82008 122.19 10.2201V10.3601H110.2V9.24008C110.22 9.14008 110.24 9.04008 110.24 8.95008C110.24 7.74008 108.68 6.75008 106.75 6.75008C104.82 6.75008 103.25 7.74008 103.25 8.95008C103.25 9.58008 103.68 10.1401 104.35 10.5401L104.36 10.5201ZM122.2 15.6101H110.33V13.2401H122.2V15.6101Z" fill="#FFE100"/>
<path d="M128.651 20.9693H106.111C105.781 20.1393 104.981 19.5693 104.041 19.5693C102.801 19.5693 101.811 20.5693 101.811 21.8093C101.811 23.0493 102.751 23.9593 103.931 24.0193V24.0393H113.701V29.3893C113.701 30.8693 114.931 32.0593 116.431 32.0593H116.931C118.441 32.0593 119.671 30.8593 119.671 29.3893V24.0393H128.661C129.541 24.0393 130.261 23.3493 130.261 22.4993C130.261 21.6493 129.531 20.9693 128.661 20.9693H128.651Z" fill="#FFE100"/>
<path d="M134.111 11.75L134.201 11.76C134.201 11.76 134.211 11.77 134.221 11.77C134.231 11.77 134.241 11.76 134.241 11.76H150.251V13.81H136.471L136.321 13.82C134.721 13.82 133.411 15.04 133.411 16.53V19.47C133.411 20.96 134.721 22.17 136.321 22.17H136.851C136.911 22.17 136.991 22.17 137.061 22.15H155.931C156.811 22.15 157.541 21.45 157.541 20.62C157.541 19.79 156.821 19.08 155.931 19.08H139.751V16.87H152.821C152.901 16.87 152.961 16.9 153.051 16.9H153.561C155.101 16.9 156.361 15.69 156.361 14.22V11.31C156.361 9.83004 155.091 8.64004 153.561 8.64004C153.561 8.64004 152.651 8.65004 152.461 8.70004H136.281C135.951 7.88004 135.151 7.29004 134.211 7.29004C132.981 7.29004 131.971 8.29004 131.971 9.53004C131.971 10.77 132.921 11.69 134.091 11.75H134.111Z" fill="#FFE100"/>
<path d="M157.511 26.79H148.241C148.241 26.72 148.271 26.65 148.271 26.57V25.63C148.271 24.16 147.041 22.96 145.541 22.96H145.041C143.541 22.96 142.311 24.16 142.311 25.63V26.57C142.311 26.65 142.331 26.72 142.331 26.79H135.191C134.861 25.97 134.061 25.39 133.111 25.39C131.891 25.39 130.881 26.39 130.881 27.62C130.881 28.85 131.831 29.77 133.001 29.83V29.86H157.501C158.381 29.86 159.111 29.16 159.111 28.32C159.111 27.48 158.381 26.78 157.501 26.78L157.511 26.79Z" fill="#FFE100"/>
<path d="M35.07 25.36C35.07 25.36 37.09 24.5 37.45 22.26C37.78 20.23 36.1 19 34.2 19C32.5 19 22.9 19 22.9 19L11.46 38.44H16.37L17.5 36.47H32.06C32.06 36.47 38.1 36.94 39.1 30.93C39.91 26.05 35.07 25.37 35.07 25.37V25.36ZM33.69 30.76C33.2 32.28 31.64 32.18 31.64 32.18H20.09L25.43 23.11C25.43 23.11 29.41 23.11 30.25 23.11C31.09 23.11 31.6 23.49 31.33 24.44C31.01 25.59 29.74 25.45 29.74 25.45H28.12L26.01 29.1H32.18C32.6 29.1 34.2 29.14 33.68 30.76H33.69Z" fill="#009944"/>
</g>
<defs>
<clipPath id="clip0_76_1178">
<rect width="164.24" height="41.3" fill="white"/>
</clipPath>
</defs>
</svg>
